<svg xmlns="http://www.w3.org/2000/svg" width="172" height="40" fill="none"><g clip-path="url(#a)"><path fill="#023F3A" d="M20 0C8.954 0 0 8.954 0 20c11.046 0 20-8.954 20-20ZM20 40c11.046 0 20-8.954 20-20-11.046 0-20 8.954-20 20Z"/><path fill="#C13512" d="M20 0c11.046 0 20 8.954 20 20-11.046 0-20-8.954-20-20ZM20 40C8.954 40 0 31.046 0 20c11.046 0 20 8.954 20 20Z"/></g><path fill="#222" d="M62.415 11.852v2.938h-7.566v4.654h5.798v2.886h-5.798V30h-3.64V11.852h11.206Zm1.645 10.894c0-1.456.286-2.747.858-3.874.59-1.127 1.378-1.993 2.366-2.6 1.005-.607 2.123-.91 3.354-.91 1.075 0 2.01.217 2.808.65.815.433 1.465.98 1.95 1.638v-2.054h3.666V30h-3.666v-2.106c-.468.676-1.118 1.24-1.95 1.69-.814.433-1.76.65-2.834.65a6.187 6.187 0 0 1-3.328-.936c-.988-.624-1.777-1.5-2.366-2.626-.572-1.144-.858-2.453-.858-3.926Zm11.336.052c0-.884-.173-1.638-.52-2.262-.347-.641-.815-1.127-1.404-1.456a3.68 3.68 0 0 0-1.898-.52c-.676 0-1.3.165-1.872.494-.572.33-1.04.815-1.404 1.456-.347.624-.52 1.37-.52 2.236 0 .867.173 1.63.52 2.288.364.641.832 1.135 1.404 1.482.59.347 1.213.52 1.872.52a3.83 3.83 0 0 0 1.898-.494 3.782 3.782 0 0 0 1.404-1.456c.347-.641.52-1.404.52-2.288Zm10.861-4.966a5.151 5.151 0 0 1 1.82-1.794c.763-.433 1.63-.65 2.6-.65v3.822h-.962c-1.144 0-2.01.269-2.6.806-.572.537-.858 1.473-.858 2.808V30h-3.64V15.596h3.64v2.236Zm24.76-2.444c1.768 0 3.189.546 4.264 1.638 1.092 1.075 1.638 2.583 1.638 4.524V30h-3.64v-7.956c0-1.127-.286-1.985-.858-2.574-.572-.607-1.352-.91-2.34-.91-.988 0-1.777.303-2.366.91-.572.59-.858 1.447-.858 2.574V30h-3.64v-7.956c0-1.127-.286-1.985-.858-2.574-.572-.607-1.352-.91-2.34-.91-1.005 0-1.803.303-2.392.91-.572.59-.858 1.447-.858 2.574V30h-3.64V15.596h3.64v1.742a4.87 4.87 0 0 1 1.794-1.43 5.723 5.723 0 0 1 2.444-.52c1.127 0 2.132.243 3.016.728a4.927 4.927 0 0 1 2.054 2.028c.468-.832 1.144-1.5 2.028-2.002a5.881 5.881 0 0 1 2.912-.754Zm11.202-1.508c-.641 0-1.179-.2-1.612-.598a2.085 2.085 0 0 1-.624-1.534c0-.607.208-1.11.624-1.508.433-.416.971-.624 1.612-.624.641 0 1.17.208 1.586.624.433.399.65.901.65 1.508s-.217 1.118-.65 1.534c-.416.399-.945.598-1.586.598Zm1.794 1.716V30h-3.64V15.596h3.64Zm11.578-.208c1.716 0 3.103.546 4.16 1.638 1.058 1.075 1.586 2.583 1.586 4.524V30h-3.64v-7.956c0-1.144-.286-2.02-.858-2.626-.572-.624-1.352-.936-2.34-.936-1.005 0-1.802.312-2.392.936-.572.607-.858 1.482-.858 2.626V30h-3.64V15.596h3.64v1.794a4.943 4.943 0 0 1 1.846-1.456 5.722 5.722 0 0 1 2.496-.546Zm15.604 14.846c-1.387 0-2.635-.303-3.744-.91a6.826 6.826 0 0 1-2.626-2.626c-.624-1.127-.936-2.427-.936-3.9 0-1.473.321-2.773.962-3.9a6.774 6.774 0 0 1 2.678-2.6c1.127-.624 2.383-.936 3.77-.936s2.643.312 3.77.936a6.595 6.595 0 0 1 2.652 2.6c.659 1.127.988 2.427.988 3.9 0 1.473-.338 2.773-1.014 3.9a6.91 6.91 0 0 1-2.704 2.626c-1.127.607-2.392.91-3.796.91Zm0-3.172c.659 0 1.274-.156 1.846-.468.589-.33 1.057-.815 1.404-1.456s.52-1.421.52-2.34c0-1.37-.364-2.418-1.092-3.146-.711-.745-1.586-1.118-2.626-1.118-1.04 0-1.915.373-2.626 1.118-.693.728-1.04 1.777-1.04 3.146 0 1.37.338 2.427 1.014 3.172.693.728 1.56 1.092 2.6 1.092Z"/><defs><clipPath id="a"><path fill="#fff" d="M0 0h172v40H0z"/></clipPath></defs></svg>